<?xml version="1.0" encoding="UTF-8" standalone="no"?>
<svg
   xmlns:dc="http://purl.org/dc/elements/1.1/"
   xmlns:cc="http://creativecommons.org/ns#"
   xmlns:rdf="http://www.w3.org/1999/02/22-rdf-syntax-ns#"
   xmlns:svg="http://www.w3.org/2000/svg"
   xmlns="http://www.w3.org/2000/svg"
   xmlns:sodipodi="http://sodipodi.sourceforge.net/DTD/sodipodi-0.dtd"
   xmlns:inkscape="http://www.inkscape.org/namespaces/inkscape"
   width="364"
   height="160"
   viewBox="0 0 364 160"
   fill="none"
   version="1.1"
   id="svg181"
   sodipodi:docname="inbox-zero.svg"
   inkscape:version="0.92.5 (2060ec1f9f, 2020-04-08)">
  <metadata
     id="metadata185">
    <rdf:RDF>
      <cc:Work
         rdf:about="">
        <dc:format>image/svg+xml</dc:format>
        <dc:type
           rdf:resource="http://purl.org/dc/dcmitype/StillImage" />
      </cc:Work>
    </rdf:RDF>
  </metadata>
  <sodipodi:namedview
     pagecolor="#ffffff"
     bordercolor="#666666"
     borderopacity="1"
     objecttolerance="10"
     gridtolerance="10"
     guidetolerance="10"
     inkscape:pageopacity="0"
     inkscape:pageshadow="2"
     inkscape:window-width="1848"
     inkscape:window-height="1016"
     id="namedview183"
     showgrid="false"
     inkscape:zoom="4.5796703"
     inkscape:cx="182"
     inkscape:cy="80"
     inkscape:window-x="72"
     inkscape:window-y="27"
     inkscape:window-maximized="1"
     inkscape:current-layer="svg181" />
  <g
     clip-path="url(#clip0)"
     id="g174"
     transform="matrix(-1,0,0,1,363.754,0)">
    <path
       d="M 363.754,134.158 H 228.676 v 0.92 h 135.078 z"
       id="path108"
       inkscape:connector-curvature="0"
       style="fill:#e1e4e8" />
    <path
       d="m 0,135.999 12.1543,-30.938 1.1049,9.438 8.9316,-15.9296 2.0717,6.0776 4.1896,-10.6815 4.696,14.8705 7.3662,-22.4208 5.5247,18.5538 7.6885,-11.0035 c 0,0 -8.287,3.0386 -8.287,2.2099 0,-0.8287 11.1874,-15.5612 11.1874,-15.5612 0,0 -10.3127,3.8673 -10.3127,3.0386 0,-0.7826 8.7474,-8.8855 11.7399,-13.9958 2.9926,-5.1104 8.3331,-22.7433 8.3331,-22.7433 0,0 8.5633,21.7304 13.1211,24.0784 1.4733,-3.499 6.1692,-13.3973 6.1692,-13.3973 l -9.2998,4.0974 c 0,0 13.9958,-29.511 15.7453,-36.1406 1.7034,-6.6756 1.2891,-4.3737 4.3737,1.4272 2.1178,4.9262 4.6503,21.0859 12.4303,30.2937 7.366,6.9058 -5.294,1.9797 -5.294,1.9797 l 11.417,21.8685 10.037,-19.4285 5.939,15.1008 8.885,-19.5205 -10.036,7.0439 c 0,0 8.932,-13.1671 10.865,-23.5259 1.888,-10.4048 4.282,-26.9328 4.282,-26.9328 l 12.614,24.0784 c 0,0 12.063,-33.42428 12.523,-37.9361 1.427,15.9755 20.533,54.0498 20.533,54.0498 0,0 7.413,-15.7914 8.103,-21.6384 2.302,5.8009 32.366,102.3446 32.366,102.3446 0,0 -84.804,5.525 -117.86,5.617 C 80.2459,140.465 19.0601,138.255 11.0033,137.564 6.03111,137.15 0,135.999 0,135.999 Z"
       id="path110"
       inkscape:connector-curvature="0"
       style="fill:#7cbd00" />
    <path
       d="m 229.182,159.847 c 25.427,0 46.039,-3.318 46.039,-7.412 0,-4.094 -20.612,-7.412 -46.039,-7.412 -25.427,0 -46.039,3.318 -46.039,7.412 0,4.094 20.612,7.412 46.039,7.412 z"
       id="path112"
       inkscape:connector-curvature="0"
       style="fill:#f1f1f1" />
    <path
       d="m 265.967,117.399 c -0.184,-0.782 36.325,-42.7699 39.456,-45.6243 3.13,-2.8544 31.168,-35.9104 33.194,-37.0613 1.243,-2.7624 -2.855,-5.1104 -4.696,-3.8213 -1.704,3.3609 -31.261,38.2584 -33.931,41.1128 -2.67,2.8544 -24.078,26.012 -33.424,33.4241 -2.026,5.617 -3.914,6.584 -5.341,8.195 -0.23,0.875 0.046,2.072 1.75,3.177 1.703,1.105 2.992,0.598 2.992,0.598 z"
       id="path114"
       inkscape:connector-curvature="0"
       style="fill:#f9c513" />
    <path
       d="m 328.856,42.6321 c -2.67,2.6242 -12.706,14.4562 -15.331,17.5408 -5.616,6.6757 -28.866,33.01 -34.805,39.6396 -2.762,3.1305 -13.305,13.9035 -16.068,16.7585 0.092,0.092 0.231,0.184 0.369,0.23 1.703,1.151 2.992,0.598 2.992,0.598 -0.184,-0.782 36.325,-42.7698 39.456,-45.6243 3.13,-2.8544 31.168,-35.9104 33.194,-37.0613 0.322,-0.7367 0.276,-1.5654 -0.138,-2.2559 -2.947,3.637 -6.354,6.9058 -9.669,10.1746 z"
       id="path116"
       inkscape:connector-curvature="0"
       style="fill:#ffdf5d" />
    <path
       d="m 261.962,112.841 c -0.277,0.231 -0.507,0.507 -0.737,0.783 -0.23,0.875 0.046,2.072 1.75,3.177 1.703,1.105 2.992,0.598 2.992,0.598 0.092,-0.276 0.276,-0.506 0.46,-0.736 -1.012,-1.75 -2.578,-3.085 -4.465,-3.822 z"
       id="path118"
       inkscape:connector-curvature="0"
       style="fill:#dbab09" />
    <path
       d="m 269.903,37.559 c -0.473,-0.745 -1.289,-1.8768 -2.555,-3.1679 -2.071,-2.1178 -5.801,-5.1564 -11.832,-7.4583 -6.906,-2.6242 -14.732,-2.348 -21.454,0.7366 l -0.23,0.0921 -0.23,-0.0921 c -6.846,-2.4497 -10.756,-0.888 -12.391,0.1388 2.242,0.7775 6.397,3.2592 7.971,8.7467 l -1.105,0.3223 c -1.565,-5.5247 -6.123,-7.7345 -7.781,-8.1489 l 2.21,8.1029 -0.138,0.2302 c -0.027,0.0275 -1.603,2.2292 -2.865,5.3539 0.049,-0.0366 0.098,-0.0718 0.149,-0.1055 0.829,-0.5525 1.841,-0.6906 2.9,-0.3223 2.347,0.7824 4.05,3.3587 5.845,6.0738 l 0.002,0.0034 c 1.75,2.6702 3.545,5.3865 5.801,5.985 1.572,0.4042 4.721,0.0199 8.378,-0.4265 l 0.278,-0.0338 0.08,-0.0099 c 7.122,-0.8731 15.957,-1.9561 20.131,1.6673 3.084,2.6242 6.031,7.2741 2.44,14.3641 -0.802,1.6039 -2.826,4.9189 -3.853,6.5995 -0.152,0.2491 -0.282,0.4622 -0.383,0.6286 0.461,0.5525 1.151,1.7035 0.829,3.1307 -0.094,0.4363 -0.271,0.8538 -0.533,1.2526 1.163,-0.5816 2.283,-1.2206 3.349,-1.9124 0.084,-0.1545 0.242,-0.2481 0.413,-0.2722 0.092,-0.062 0.184,-0.1243 0.276,-0.1871 l -0.052,-0.0779 c 0.038,-0.0228 0.139,-0.0531 0.293,-0.0888 0.164,-0.1148 0.326,-0.2309 0.488,-0.3483 -0.721,-0.2286 -1.35,-0.3808 -1.84,-0.4377 l 0.138,-1.1509 c 0.721,0.0865 1.695,0.3496 2.808,0.7437 1.814,-1.4525 3.405,-3.0764 4.696,-4.8412 3.872,-5.2731 3.896,-13.159 3.6,-17.1513 -0.322,0.7629 -0.633,1.3317 -0.883,1.6362 l -0.921,-0.7367 c 0.829,-1.0589 2.946,-6.7677 2.348,-11.878 -0.322,-2.5782 -1.243,-4.5118 -2.855,-5.8009 -5.65,-1.1215 -12.271,4.1422 -13.159,4.8487 l -0.001,2e-4 c -0.059,0.0475 -0.093,0.0743 -0.099,0.0772 l -0.736,-0.8747 c 0.259,-0.2224 5.143,-4.3535 10.473,-5.2112 z m -3.321,42.1176 c 0.543,-0.0995 1.421,-0.2155 2.436,-0.3222 1.095,0.4712 2.256,1.0296 3.392,1.637 -0.866,0.3688 -1.836,0.765 -2.873,1.1753 -1.029,-0.9891 -2.062,-1.8561 -2.955,-2.4901 z m 1.785,2.9475 c -1.043,-0.971 -2.068,-1.7898 -2.9,-2.3174 -4.098,2.6415 -8.953,4.5332 -13.965,5.4303 2.702,0.0536 6.119,-0.0624 10.052,-0.5913 l -0.007,-0.0197 c 2.305,-0.8017 4.671,-1.6702 6.82,-2.5019 z m 0.155,1.1643 c 0.247,-0.0972 0.495,-0.1957 0.744,-0.295 0.025,0.0247 0.049,0.0494 0.074,0.0742 -0.274,0.0757 -0.547,0.1494 -0.818,0.2208 z m 1.887,-0.7515 c 1.307,-0.5271 2.368,-0.977 3.23,-1.3627 0.206,0.1187 0.409,0.2386 0.61,0.3595 -1.22,0.4201 -2.45,0.8174 -3.671,1.1789 -0.056,-0.0588 -0.112,-0.1174 -0.169,-0.1757 z m 4.513,-1.9587 c 0.25,0.1511 0.497,0.3039 0.739,0.458 2.822,-1.0164 5.556,-2.1302 7.976,-3.1786 -0.757,0.0992 -1.392,0.1388 -1.925,0.1388 -1.933,0 -2.578,-0.5524 -2.762,-0.9207 -0.138,-0.2763 -0.092,-0.6446 0.138,-1.0129 0.986,-1.702 6.677,-5.757 11.055,-5.9758 1.627,-2.4735 5.788,-7.3692 17.582,-8.7567 l 0.138,1.151 c -11.464,1.3351 -15.331,5.8009 -17.265,9.0236 -0.414,0.6906 -0.414,1.105 -0.322,1.1971 0.23,0.2762 1.243,0.2302 2.164,-0.1842 l 0.736,-0.3683 0.092,0.8287 c 0.507,6.1692 6.998,5.8469 7.274,5.8009 6.216,0 10.497,-4.0975 12.477,-6.5375 2.302,-2.8084 4.696,-9.9905 1.657,-13.2593 -2.798,-3.0732 -8.018,-1.4394 -14.021,0.4395 l -0.067,0.0209 c -0.552,0.1841 -1.15,0.3681 -1.748,0.5522 l -10e-4,3e-4 c -6.253,1.9407 -22.93,10.7492 -25.166,11.9315 -0.194,0.3107 -0.399,0.6155 -0.616,0.9134 -1.226,1.6681 -2.708,3.215 -4.386,4.6164 0.174,0.0698 0.349,0.1419 0.527,0.2163 3.071,-0.3575 7.096,-0.5969 8.003,0.1395 0.322,0.2302 0.414,0.6445 0.276,0.9668 -0.091,0.2725 -0.261,0.6845 -2.555,1.7991 z m -1.164,-0.6766 c 1.155,-0.5216 2.01,-0.9586 2.43,-1.2606 -0.827,-0.1908 -2.825,-0.1376 -4.835,0.0069 0.804,0.3894 1.614,0.8111 2.405,1.2537 z m 1.734,2.415 c -1.343,0.4739 -2.703,0.9236 -4.056,1.3323 1.411,1.6021 2.621,3.3159 3.186,4.7984 0.093,0.2762 -0.046,0.6445 -0.322,0.7366 -0.046,0.046 -0.138,0.046 -0.184,0.046 -0.23,0 -0.46,-0.1381 -0.552,-0.3683 -0.57,-1.4757 -1.863,-3.2411 -3.336,-4.8584 -1.752,0.4975 -3.481,0.917 -5.136,1.2214 -4.88,0.9207 -9.115,1.197 -12.476,1.197 -3.731,0 -6.332,-0.3498 -7.432,-0.5352 l 2.915,4.3923 c 2.039,-0.51 3.956,-0.9489 5.622,-1.1869 3.453,-0.5064 6.86,0.4604 9.346,2.6703 2.67,2.394 4.097,5.939 4.005,10.0369 -0.23,8.102 -5.064,11.187 -7.412,12.568 -0.035,0.835 -0.149,1.749 -0.58,2.484 0.087,0.182 0.222,0.467 0.399,0.84 1.394,2.947 5.363,11.331 8.332,16.841 2.991,-3.808 10.547,-3.29 12.29,-2.854 0.023,0 0.046,-0.012 0.069,-0.023 0.023,-0.012 0.046,-0.023 0.069,-0.023 0.829,-0.322 2.624,-1.013 3.867,0.967 1.382,2.21 -2.117,7.78 -3.452,9.53 -4.098,5.432 -13.628,8.885 -18.922,9.3 -0.139,0.046 -0.277,0.046 -0.461,0.046 -4.88,0 -7.734,-5.939 -7.826,-6.216 l -0.046,-0.092 -4.329,-14.676 c -0.016,-0.032 -0.031,-0.065 -0.045,-0.102 l 0.014,-0.004 -5.393,-18.284 c -0.412,0.038 -0.825,0.07 -1.237,0.096 -2.061,5.946 -4.872,11.622 -8.347,16.857 -4.925,7.291 -11.549,11.609 -13.708,12.899 2.343,2.582 2.757,6.228 2.548,8.013 0.907,-0.252 1.4,-0.24 1.722,0.035 0.322,0.277 0.461,0.599 0.461,1.013 -0.047,0.645 -0.553,1.704 -4.098,3.729 -1.795,1.105 -4.834,1.566 -8.057,1.566 -4.097,0 -8.425,-0.783 -11.003,-2.072 -3.821,-1.934 -6.307,-4.788 -7.458,-8.425 -1.289,-4.236 -0.323,-8.425 0.644,-10.267 0.783,-1.427 6.261,-4.604 13.904,-8.931 2.21,-1.243 4.328,-2.44 5.663,-3.269 4.134,-2.535 10.878,-10.422 12.899,-12.831 -2.199,-0.687 -4.004,-1.522 -5.211,-2.408 -3.706,-2.748 -5.018,-5.296 -4.042,-8.799 -5.173,2.719 -21.805,11.388 -28.139,14.185 -3.223,1.382 -19.474,7.873 -26.426,7.873 -0.921,0 -1.704,-0.138 -2.21,-0.368 -0.691,-0.322 -0.921,-0.783 -1.013,-1.151 -0.23,-0.829 -0.783,-3.039 13.305,-11.878 7.458,-4.696 16.62,-9.6684 22.375,-12.5228 9.775,-4.8474 29.903,-10.8452 35.117,-12.3513 -5.361,-2.2569 -9.94,-6.1621 -13.018,-11.1286 -1.828,-2.8146 -2.582,-6.1517 -2.147,-9.435 -1.584,-2.3692 -5.556,-3.8711 -7.844,-4.0083 -0.322,0 -0.552,-0.2763 -0.552,-0.5985 0,-0.3223 0.276,-0.5525 0.598,-0.5525 2.165,0.1634 5.96,1.4137 8.075,3.6868 0.063,-0.2565 0.133,-0.5121 0.211,-0.7666 l -0.004,-0.005 c -0.459,-0.7089 -3.94,-6.0817 -8.512,-7.9795 -0.276,-0.1381 -0.414,-0.4604 -0.322,-0.7366 0.138,-0.2763 0.46,-0.4144 0.737,-0.3223 4.013,1.6547 7.111,5.6247 8.429,7.5043 0.062,-0.777 0.023,-1.7102 -0.029,-2.933 -0.007,-0.1678 -0.014,-0.3409 -0.021,-0.5199 -0.092,-1.6113 -0.185,-3.591 -0.185,-6.2613 l 0.001,-0.092 h -0.001 l 0.001,-0.0166 c 0.043,-6.0359 3.642,-11.6384 4.465,-12.8283 l -2.071,-7.6885 c -0.047,-0.1381 -0.047,-0.3223 0,-0.4604 0.041,-0.2482 0.194,-0.4593 0.391,-0.6332 l -0.115,-0.1035 0.012,-0.0128 c 0.314,-0.3204 4.528,-4.6252 14.306,-1.2302 6.952,-3.1307 15.009,-3.3608 22.145,-0.6445 10.264,3.8786 14.228,9.7575 15.266,11.5939 0.884,-0.0503 1.771,0.003 2.643,0.192 l 0.138,0.0461 0.092,0.092 c 1.888,1.4733 3.039,3.6832 3.361,6.6297 0.375,2.9551 -0.093,6.0873 -0.77,8.537 l 0.015,0.1078 v 0 c 0.11,0.7874 0.499,3.5674 0.34,7.1005 -0.108,3.0054 -0.644,6.9506 -2.301,10.4693 4.871,-2.5583 18.208,-9.453 23.848,-11.2059 0.299,-0.092 0.586,-0.184 0.873,-0.2759 l 0.001,-4e-4 0.002,-3e-4 c 0.287,-0.092 0.574,-0.184 0.873,-0.2759 l 0.093,-0.029 c 6.134,-1.9229 11.894,-3.7283 15.192,-0.1552 3.591,3.9134 0.829,11.8321 -1.611,14.7785 -2.118,2.5782 -6.676,6.9519 -13.352,6.9519 0,0.0921 -0.092,0.0921 -0.276,0.0921 -1.241,0 -6.343,-0.2786 -7.83,-4.9797 -2.071,1.0529 -8.494,4.2081 -15.635,6.8322 0.477,0.3361 0.926,0.6749 1.336,1.0125 0.058,0.0188 0.115,0.0458 0.169,0.0815 0.598,0.5064 1.105,1.0129 1.565,1.6114 0.184,0.2302 0.138,0.5985 -0.092,0.8287 -0.092,0.1381 -0.23,0.1841 -0.368,0.1841 -0.185,0 -0.323,-0.092 -0.461,-0.2302 -0.048,-0.0641 -0.097,-0.127 -0.146,-0.1889 -0.719,-0.89 -1.926,-1.8636 -3.358,-2.8111 z m -24.983,48.9554 3.994,13.527 c 0.056,0.122 0.26,0.525 0.595,1.06 0.439,-0.543 0.736,-3.308 -0.871,-8.841 -1.124,-3.829 -2.677,-5.192 -3.718,-5.746 z m 5.247,15.549 c 0.03,-0.027 0.058,-0.057 0.083,-0.088 1.197,-1.105 0.966,-4.973 -0.507,-10.037 -1.632,-5.532 -4.292,-6.509 -5.208,-6.845 l -0.039,-0.014 -1.467,-4.966 c 0.191,0.082 0.39,0.131 0.591,0.131 0.138,0 0.23,0 0.276,0.046 0.276,-0.092 0.461,-0.276 0.599,-0.552 0.69,-1.335 0.736,-6.077 -0.184,-8.886 -0.55,-1.647 -1.307,-3.042 -2.002,-3.923 l 6.053,-0.589 c 0.276,0.139 0.46,0.369 0.552,0.691 0,0.092 -0.046,0.368 -0.092,0.553 -0.276,1.335 -0.69,3.545 0.185,4.834 0.368,0.506 0.828,0.782 1.473,0.874 0.276,0.046 0.506,0.046 0.736,0.046 0.572,0 1.045,-0.122 1.402,-0.332 1.443,3.079 7.592,16.105 10.615,20.866 l 0.966,-0.645 c -0.4,-0.634 -0.86,-1.424 -1.36,-2.324 2.393,-3.923 10.577,-3.197 11.535,-2.832 l 0.184,0.092 0.184,-0.092 c 0.046,-0.023 0.104,-0.046 0.161,-0.069 h 10e-4 c 0.057,-0.023 0.115,-0.046 0.161,-0.069 1.058,-0.415 1.795,-0.599 2.486,0.506 0.736,1.197 -1.197,5.295 -3.407,8.241 -3.821,5.11 -13.121,8.471 -18.094,8.84 -2.599,0.202 -4.655,-1.807 -5.883,-3.457 z m 36.393,-72.95 c -0.598,0.3061 -1.733,0.875 -3.253,1.5977 l -0.001,-0.0044 c -4.098,1.197 -8.103,1.7034 -8.84,1.151 0.59,-1.053 5.341,-4.6874 9.353,-5.2989 -0.547,1.1293 -0.291,1.7968 0.039,2.1682 0.542,0.6323 1.66,0.6886 2.702,0.3864 z m -36.587,9.1897 0.011,0.0332 c -3.406,1.0223 -6.982,1.5782 -10.508,1.5782 -1.149,0 -2.298,-0.0459 -3.401,-0.1835 -0.731,-1.2936 -2.033,-2.6086 -4.103,-2.763 -1.092,-0.0813 -2.457,0.2977 -3.946,1.0016 -5.912,-1.9999 -10.956,-6.0248 -14.239,-11.3143 -2.164,-3.2688 -2.671,-7.2742 -1.474,-11.0033 0.456,-1.2763 0.371,-2.7331 0.235,-5.0406 l -0.004,-0.0698 c -0.092,-1.6113 -0.185,-3.545 -0.185,-6.2152 0,-0.2332 0.006,-0.466 0.018,-0.6982 0.204,-1.6699 0.849,-4.6545 2.33,-5.6552 0.553,-0.3683 1.151,-0.4144 1.888,-0.1842 1.926,0.5824 3.548,3.0392 5.118,5.4192 l 0.131,0.1976 0.144,0.219 c 1.84,2.7846 3.7,5.5995 6.347,6.2725 1.747,0.448 4.977,0.0676 8.756,-0.3774 l 0.314,-0.037 0.141,-0.0169 c 6.882,-0.826 15.4,-1.8484 19.195,1.3981 4.051,3.4529 4.788,7.8266 2.164,12.983 -1.059,2.1178 -4.374,7.4583 -4.42,7.5043 l -0.23,0.4144 0.322,0.3223 c 0,0 1.105,1.1049 0.829,2.394 -0.23,1.0129 -1.335,2.4861 -5.433,3.8212 z m -11.815,2.7425 c -0.519,-0.0173 -1.031,-0.0469 -1.543,-0.0927 0.062,0.1882 0.11,0.3656 0.145,0.5269 l -1.105,0.2302 c -0.001,-0.0037 -0.003,-0.0097 -0.005,-0.0179 l -0.007,-0.0268 c -0.115,-0.4184 -0.921,-3.3716 -3.717,-3.5463 -1.562,-0.1202 -4.529,1.2399 -7.644,3.5366 l 0.002,0.0084 -0.017,0.0026 c -0.807,0.5959 -1.624,1.2546 -2.429,1.9667 l 0.006,0.0104 -0.041,0.0211 c -2.022,1.7937 -3.966,3.9238 -5.484,6.2401 -0.912,1.41 -1.601,2.6443 -2.063,3.7527 l 0.037,0.0686 c -0.007,0.0043 -0.036,0.0198 -0.084,0.046 -1.476,3.6382 -0.457,5.9202 3.261,8.6552 3.361,2.486 12.292,4.604 20.809,3.729 l 10.221,-1.013 0.138,0.046 c 0.737,0.277 1.243,0.921 1.381,1.658 v 0.092 c 0,0.184 -0.046,0.414 -0.138,0.829 -0.016,0.088 -0.034,0.183 -0.053,0.285 v 10e-4 c -0.203,1.071 -0.535,2.828 0.053,3.627 0.138,0.23 0.369,0.368 0.691,0.414 0.736,0.092 1.289,0 1.611,-0.276 0.599,-0.552 0.691,-1.703 0.691,-2.578 v -0.322 l 0.322,-0.185 c 2.21,-1.289 6.86,-4.005 7.044,-11.739 0.092,-3.7296 -1.197,-6.9523 -3.591,-9.1162 -2.256,-2.0257 -5.248,-2.8544 -8.425,-2.394 -1.949,0.2841 -4.255,0.8546 -6.698,1.4589 l -0.002,4e-4 c -0.327,0.081 -0.657,0.1626 -0.989,0.2441 -5.801,1.4733 -12.338,3.1307 -16.666,2.1639 l 0.276,-1.105 c 1.447,0.3288 3.193,0.3348 5.1,0.1394 0.348,-2.858 3.126,-6.3051 3.587,-6.8772 0.032,-0.0391 0.053,-0.0648 0.061,-0.0759 l 0.875,0.7366 c -0.043,0.0423 -2.844,3.3871 -3.335,6.0726 2.182,-0.3023 4.528,-0.8218 6.848,-1.3923 l -0.758,-3.79 1.128,-0.2257 0.748,3.7367 c 0.641,-0.162 1.278,-0.3258 1.906,-0.488 0.343,-0.0885 0.684,-0.1764 1.023,-0.263 z m -17.02,1.687 c 0.229,-0.2028 0.459,-0.4029 0.691,-0.5997 -1.732,0.3853 -3.435,0.884 -5.096,1.5108 -3.038,1.1049 -5.248,2.1638 -6.353,2.8083 1.243,-0.1841 3.637,-0.8287 6.675,-1.9336 0.863,-0.302 3.02,-1.2508 4.083,-1.7858 z m 2.673,-2.1729 c -2.528,0.4186 -5.051,1.092 -7.446,1.979 -2.118,0.7366 -4.052,1.5653 -5.479,2.302 -1.933,1.0128 -2.532,1.6113 -2.302,2.2559 0.092,0.3683 0.461,0.5524 1.105,0.5524 0.507,0 1.151,-0.092 2.072,-0.3222 1.519,-0.3683 3.545,-0.9669 5.663,-1.7495 0.318,-0.1212 0.79,-0.312 1.319,-0.5333 -1.331,1.3964 -2.504,2.8411 -3.391,4.2164 -0.871,1.3388 -1.549,2.5519 -2.032,3.6684 -0.334,0.1732 -0.856,0.445 -1.529,0.7961 l -0.026,0.0136 c -5.591,2.9149 -21.503,11.2119 -27.673,13.9379 -7.643,3.36 -24.309,9.115 -27.624,7.504 -0.283,-0.121 -0.353,-0.278 -0.397,-0.377 -0.006,-0.014 -0.012,-0.026 -0.017,-0.037 -0.092,-0.369 0.092,-2.625 12.799,-10.589 7.458,-4.696 16.574,-9.6225 22.283,-12.4769 9.063,-4.4941 27.174,-9.9631 33.739,-11.8966 -0.354,0.2409 -0.709,0.4933 -1.064,0.7558 z m 17.106,26.5047 0.123,-0.012 0.002,0.025 c -0.048,0 -0.091,-0.005 -0.125,-0.013 z m -1.693,0.165 1.644,-0.16 c 0.312,0.241 1.483,1.5 2.338,4.106 0.966,2.854 0.736,7.09 0.322,7.918 -0.219,-0.087 -0.687,-0.466 -1.089,-0.977 z m -3.663,0.269 c -4.476,0.143 -8.837,-0.435 -12.373,-1.393 l -0.005,0.006 c -1.532,1.835 -8.913,10.673 -13.494,13.489 -1.381,0.828 -3.499,2.025 -5.709,3.268 -5.11,2.901 -12.798,7.275 -13.489,8.472 -0.875,1.657 -1.796,5.478 -0.552,9.346 1.012,3.314 3.314,5.893 6.859,7.734 1.243,0.645 2.947,1.151 4.834,1.473 2.717,0.369 7.781,-1.657 11.464,-3.13 v 0 0 c 1.228,-0.486 2.203,-0.869 2.984,-1.151 0.287,-0.893 0.254,-5.497 -2.708,-8.149 -4.005,-3.591 -13.673,-2.394 -14.456,-2.072 0,0 0.046,-0.046 0.138,-0.092 l -0.828,-0.829 c 0.677,-0.678 10.982,-1.932 15.672,1.898 1.701,-1 8.64,-5.373 13.562,-12.717 3.345,-5.061 6.059,-10.459 8.101,-16.153 z m -18.92,39.173 -0.007,-0.022 c -0.925,0.33 -2.044,0.778 -3.031,1.172 v 0 0.001 c -2.164,0.92 -4.65,1.933 -6.998,2.578 3.268,0.092 6.445,-0.323 8.287,-1.427 3.222,-1.842 3.499,-2.671 3.499,-2.809 -0.276,0 -0.853,0.168 -1.568,0.418 -0.054,0.036 -0.114,0.066 -0.182,0.089 z m 50.091,-98.9382 -1.151,-0.1841 c 0.598,-3.8212 0.782,-10.5429 -0.185,-11.6018 -0.414,-0.4604 -3.13,0.5064 -5.708,2.0257 l -0.599,-0.9668 c 5.11,-3.0386 6.676,-2.302 7.136,-1.8416 1.75,1.7955 0.737,10.9573 0.507,12.5686 z m -42.08,23.2497 c 0.875,0.5065 1.887,0.8287 2.67,0.8287 0.599,0 1.105,-0.1841 1.381,-0.5524 0.599,-1.0589 -0.644,-2.5322 -2.21,-3.4069 -0.782,-0.4604 -1.565,-0.7366 -2.255,-0.8287 -1.151,-0.1842 -1.612,0.3223 -1.796,0.5985 -0.184,0.2762 -0.322,0.9208 0.368,1.8415 0.415,0.5525 1.059,1.0589 1.842,1.5193 z m 0.552,-0.9668 c -1.335,-0.7827 -1.841,-1.6574 -1.795,-1.8415 0.184,-0.1382 1.151,-0.1382 2.486,0.6905 1.381,0.7827 1.842,1.6114 1.795,1.7956 -0.138,0.1381 -1.104,0.1381 -2.486,-0.6446 z m -62.567,40.5143 c 0.185,0.322 0.553,0.506 1.151,0.506 0.645,0 1.566,-0.23 2.763,-0.644 1.887,-0.691 4.189,-1.796 6.583,-3.177 2.394,-1.381 4.512,-2.808 6.031,-4.097 1.842,-1.566 2.486,-2.578 2.072,-3.315 -0.414,-0.737 -1.611,-0.691 -3.913,0.138 -1.888,0.691 -4.19,1.796 -6.584,3.177 -2.394,1.381 -4.512,2.808 -6.031,4.097 -1.841,1.566 -2.486,2.578 -2.072,3.315 z m 9.899,-4.328 c -4.88,2.809 -8.011,3.73 -8.84,3.683 0.323,-0.736 2.717,-3.038 7.597,-5.846 4.88,-2.809 8.011,-3.73 8.839,-3.684 -0.322,0.783 -2.716,3.039 -7.596,5.847 z m 15.008,-9.392 c -0.598,0 -0.92,-0.184 -1.058,-0.506 -0.323,-0.691 0.322,-1.427 2.256,-2.7163 1.473,-0.9669 3.545,-2.0718 5.754,-3.1307 2.256,-1.0589 4.42,-1.8876 6.078,-2.394 2.209,-0.6446 3.176,-0.6446 3.498,0.046 0.323,0.6906 -0.322,1.4272 -2.255,2.7163 -1.474,0.9668 -3.545,2.0718 -5.755,3.1307 -2.256,1.059 -4.42,1.888 -6.077,2.394 -1.105,0.322 -1.888,0.46 -2.441,0.46 z m 15.147,-8.0104 c -1.105,0.1381 -3.775,0.9208 -7.688,2.7623 -3.96,1.8416 -6.261,3.3611 -7.09,4.0971 1.105,-0.138 3.775,-0.9204 7.688,-2.7619 3.914,-1.8416 6.262,-3.3609 7.09,-4.0975 z"
       id="path120"
       inkscape:connector-curvature="0"
       style="clip-rule:evenodd;fill:#0366d6;fill-rule:evenodd" />
    <path
       d="m 319.188,146.864 c 0,0 2.164,-22.098 1.335,-25.229 -0.506,1.796 -9.392,16.16 -9.392,16.16 v -13.996 c 0,0 -1.979,6.445 -2.624,8.425 -0.644,-2.993 -5.294,-11.878 -4.604,-10.865 0.691,1.013 0.829,10.359 0,10.359 -0.644,-0.185 -3.13,-8.748 -5.616,-11.556 0.966,0.967 1.657,8.241 2.486,11.878 -0.323,-1.335 -6.998,-5.939 -10.221,-6.584 0.322,2.118 5.11,6.077 6.077,8.886 0.967,2.808 -0.644,5.939 -0.644,5.939 l 6.077,4.558 z"
       id="path122"
       inkscape:connector-curvature="0"
       style="fill:#1b6c21" />
    <path
       d="m 307.771,146.634 c -0.139,-0.46 3.406,-11.97 3.406,-11.97 0,0 10.543,-6.491 12.431,-7.596 1.888,-1.105 4.512,-0.921 4.512,-0.921 l 5.755,-2.164 c 0,0 15.837,4.19 16.297,4.328 0.461,0.138 3.269,5.294 4.512,6.998 1.243,1.703 1.842,2.808 2.026,5.57 l 0.138,2.809 -8.379,8.977 h -9.622 c 0,0 -6.814,2.624 -8.379,2.164 -1.566,-0.46 -7.136,-1.841 -9.162,-3.591 -2.026,-1.749 -13.535,-4.604 -13.535,-4.604 z"
       id="path124"
       inkscape:connector-curvature="0"
       style="fill:#1B666C" />
    <path
       d="m 328.212,128.173 c -0.046,-0.323 -0.783,-8.288 6.768,-16.943 l 0.69,0.599 c -3.821,4.327 -5.386,8.517 -6.031,11.279 -0.691,2.993 -0.506,4.926 -0.506,4.972 z"
       id="path126"
       inkscape:connector-curvature="0"
       style="fill:#ff00ff" />
    <path
       d="m 335.808,112.473 c -0.828,0 -1.519,-0.69 -1.519,-1.519 0,-0.829 0.691,-1.519 1.519,-1.519 0.829,0 1.52,0.69 1.52,1.519 0,0.829 -0.691,1.519 -1.52,1.519 z m 0,-2.118 c -0.322,0 -0.598,0.277 -0.598,0.599 0,0.322 0.276,0.598 0.598,0.598 0.323,0 0.599,-0.276 0.599,-0.598 0,-0.322 -0.276,-0.599 -0.599,-0.599 z"
       id="path128"
       inkscape:connector-curvature="0"
       style="fill:#ff00ff" />
    <path
       d="m 340.044,115.097 c -0.783,0 -1.427,-0.644 -1.427,-1.427 0,-0.782 0.644,-1.427 1.427,-1.427 0.783,0 1.427,0.645 1.427,1.427 0,0.783 -0.644,1.427 -1.427,1.427 z m 0,-1.933 c -0.276,0 -0.507,0.23 -0.507,0.506 0,0.276 0.231,0.507 0.507,0.507 0.276,0 0.506,-0.231 0.506,-0.507 0,-0.276 -0.23,-0.506 -0.506,-0.506 z"
       id="path130"
       inkscape:connector-curvature="0"
       style="fill:#ff00ff" />
    <path
       d="m 333.829,117.584 c -1.29,0 -2.302,-0.553 -2.348,-0.599 l 0.46,-0.783 c 0.092,0.046 1.888,1.059 3.499,0 1.243,-0.782 2.44,-1.703 3.545,-2.624 l 0.598,0.691 c -1.151,0.967 -2.394,1.887 -3.637,2.716 -0.69,0.46 -1.427,0.599 -2.117,0.599 z"
       id="path132"
       inkscape:connector-curvature="0"
       style="fill:#ff00ff" />
    <g
       id="g136"
       style="opacity:0.5">
      <path
         d="m 321.168,120.162 c -0.368,-1.151 -0.507,-2.394 -0.322,-3.637 0.138,-0.553 0.506,-1.197 1.059,-1.197 0.276,0.046 0.506,0.138 0.736,0.322 0.461,0.414 0.921,0.829 1.289,1.335 2.993,3.545 5.203,7.689 6.63,12.108 -0.184,-2.21 1.013,-4.327 2.67,-5.801 1.657,-1.473 3.775,-2.256 5.939,-2.808 0.783,-0.23 1.75,-0.322 2.348,0.23 0.368,0.415 0.507,1.013 0.322,1.566 -0.184,0.506 -0.506,0.966 -0.92,1.335 -0.967,0.828 -2.072,1.519 -3.177,2.071 -2.394,1.336 -4.65,2.901 -6.768,4.65 -0.184,0.185 -0.414,0.323 -0.644,0.369 -0.138,0 -0.323,0 -0.461,-0.046 -4.604,-1.059 -7.55,-6.354 -8.701,-10.497 z"
         id="path134"
         inkscape:connector-curvature="0"
         style="opacity:0.5;fill:#ff00ff" />
    </g>
    <path
       d="m 325.403,142.629 c 2.394,-2.256 5.065,-4.282 7.873,-6.031 1.98,0.414 3.821,0.092 5.341,0.322 3.222,-2.855 6.998,-6.169 10.312,-8.886 -3.775,-1.012 -15.1,-4.005 -15.1,-4.005 l -5.755,2.164 c 0,0 -2.625,-0.138 -4.512,0.921 -1.473,0.874 -8.517,5.202 -11.28,6.905 1.796,2.625 10.359,6.538 13.121,8.61 z"
       id="path138"
       inkscape:connector-curvature="0"
       style="fill:#76a3a6" />
    <path
       d="m 312.42,134.111 -0.138,-0.184 c 2.625,-1.611 9.761,-6.031 11.28,-6.906 1.795,-1.012 4.235,-0.966 4.558,-0.92 l 5.755,-2.164 h 0.046 c 0.092,0.046 11.325,2.992 15.1,4.005 l -0.046,0.23 c -3.637,-0.966 -14.318,-3.821 -15.054,-4.005 l -5.709,2.164 h -0.046 c -0.046,0 -2.624,-0.138 -4.42,0.921 -1.565,0.828 -8.701,5.248 -11.326,6.859 z"
       id="path140"
       inkscape:connector-curvature="0"
       style="fill:#e1e4e8" />
    <path
       d="m 56.4898,157.776 c 22.172,0 40.146,-1.773 40.146,-3.96 0,-2.186 -17.974,-3.959 -40.146,-3.959 -22.172,0 -40.146,1.773 -40.146,3.959 0,2.187 17.974,3.96 40.146,3.96 z"
       id="path142"
       inkscape:connector-curvature="0"
       style="fill:#f1f1f1" />
    <path
       d="m 78.3123,141.156 c 0,0 0.7827,5.985 2.348,7.596 1.5653,1.611 7.9647,6.077 8.287,5.248 -3.1306,-3.913 -6.4454,-13.581 -6.4454,-13.581 z"
       id="path144"
       inkscape:connector-curvature="0"
       style="fill:#ff7000" />
    <path
       d="m 57.7789,141.57 c -0.0921,0.046 -0.1381,0.092 -0.1841,0.138 -0.0921,0.092 0,0.276 0.046,0.368 0.7366,1.243 1.2891,2.624 1.7034,4.006 0.2763,1.012 0.8287,2.394 1.7495,1.933 1.6114,-0.874 0.2763,-2.992 0,-4.788 0.1842,1.105 3.7752,-0.184 4.9262,-1.841 1.4732,-2.118 -2.0718,-2.44 -3.3609,-2.118 -1.6574,0.414 -3.3148,1.565 -4.8801,2.302 z"
       id="path146"
       inkscape:connector-curvature="0"
       style="fill:#ff7000" />
    <path
       d="m 71.4525,128.633 c -2.1638,-0.23 -4.3737,-0.184 -6.3534,0.69 -1.8876,0.829 -3.4069,2.348 -4.788,3.868 -0.4144,0.506 -0.8748,0.921 -1.4272,1.289 -0.5525,0.276 -1.151,0.414 -1.7495,0.414 -2.9005,0.092 -5.6168,-1.519 -7.5504,-3.637 -1.9337,-2.118 -3.3148,-4.696 -4.7881,-7.182 -2.348,-3.959 -5.2024,-7.919 -9.2538,-10.083 -5.6168,-3.038 -12.983,-2.117 -18.1394,1.75 -5.1563,3.821 -8.14886,10.175 -8.60925,16.528 -0.09208,1.427 0.18415,3.223 1.56535,3.545 l 2.1178,-4.098 c 1.0589,-2.025 2.1638,-4.097 3.9593,-5.524 1.7955,-1.427 4.4658,-1.934 6.3534,-0.645 1.4732,1.013 2.0717,2.901 2.2559,4.696 0.1842,1.796 0.046,3.591 0.4604,5.341 1.0129,4.235 5.1564,7.182 9.3919,8.011 3.0847,0.598 6.3074,0.322 9.2539,-0.829 4.8801,-1.934 9.1157,-6.169 14.3181,-5.847 0.6906,1.841 2.4861,3.085 4.3737,3.637 1.8876,0.552 3.9133,0.414 5.8469,0.322 l -2.5781,3.085 c 1.3351,2.716 3.1767,5.156 5.3405,7.228 1.0589,-2.67 0.1841,-5.387 -1.4733,-7.735 0.4144,-0.828 1.105,-1.519 1.9337,-1.887 1.9336,1.013 6.9979,0.736 9.1617,0.46 -0.092,1.566 0.2302,5.157 1.2431,6.676 1.0128,1.519 4.2356,4.788 6.0771,5.755 1.151,0.644 4.696,1.473 5.2485,0.414 -4.3737,-1.841 -8.7014,-6.307 -8.6553,-11.049 0,-2.302 2.0257,-3.821 1.8875,-5.755 -0.092,-1.704 -2.8544,-3.683 -4.0514,-4.65 -3.2227,-2.624 -7.1821,-4.282 -11.3716,-4.788 z"
       id="path148"
       inkscape:connector-curvature="0"
       style="fill:#ff9c57" />
    <path
       d="m 47.236,136.46 c -1.7034,0 -3.499,0.368 -4.742,-1.013 -0.4144,-0.553 -0.7827,-1.151 -1.1049,-1.75 -1.0129,-1.565 -2.256,-1.749 -4.0515,-1.611 -2.1638,0.138 -2.9465,-0.691 -3.8212,-2.67 -2.4861,-5.525 -8.7474,-9.853 -14.7785,-6.63 -4.6039,2.486 -7.4123,7.919 -8.7014,12.799 0,0.046 -0.04602,0.092 -0.04602,0.138 0.09212,0.046 0.18412,0.092 0.32232,0.138 l 2.1638,-4.097 c 1.0589,-2.026 2.1638,-4.098 3.9593,-5.525 1.7956,-1.427 4.4658,-1.934 6.3534,-0.645 1.4733,1.013 2.0718,2.901 2.2559,4.696 0.1842,1.796 0.0461,3.591 0.4604,5.341 1.0129,4.235 5.1564,7.182 9.392,8.011 3.0846,0.598 6.3073,0.322 9.2538,-0.829 3.4529,-1.381 6.6296,-3.913 10.0365,-5.156 -2.1178,-0.921 -4.4198,-1.197 -6.9519,-1.197 z"
       id="path150"
       inkscape:connector-curvature="0"
       style="fill:#ff7000" />
    <g
       id="g154"
       style="opacity:0.6">
      <path
         d="m 70.4857,134.618 c 0.092,0 4.1435,2.716 4.0974,4.005 -0.046,1.289 -3.6831,3.223 -3.6831,3.223 0,0 1.7955,-2.256 1.3812,-3.637 -0.4144,-1.381 -1.7955,-3.591 -1.7955,-3.591 z"
         id="path152"
         inkscape:connector-curvature="0"
         style="opacity:0.6;fill:#ffd1ac" />
    </g>
    <path
       d="m 85.6785,135.815 c -0.4143,1.381 -1.197,2.67 -1.5193,4.144 -0.4603,1.795 -0.092,3.729 1.0129,5.202 -0.0921,-0.414 -0.0921,-0.875 -0.0921,-1.289 0,-2.302 2.0257,-3.821 1.8876,-5.755 -0.0921,-0.783 -0.5985,-1.565 -1.2891,-2.302 z"
       id="path156"
       inkscape:connector-curvature="0"
       style="fill:#fb8532" />
    <path
       d="m 88.4409,133.007 c 1.0589,-0.415 1.9336,0.69 1.197,3.222 l 1.3351,0.046 c -0.2302,-0.69 -0.3223,-1.427 -0.2302,-2.163 0.0461,-0.645 0.5985,-1.105 1.2431,-1.059 h 0.046 c 0.7366,0.046 0.9668,0.644 1.0129,1.381 0,0.69 -0.1381,1.381 -0.4604,2.026 1.6113,1.151 2.4861,3.13 2.2559,5.11 -0.1381,0.69 -0.2762,1.381 -0.3223,2.072 -0.046,0.736 0.3223,1.381 0.9208,1.749 0.3683,0.138 0.7827,0.184 1.151,0.276 0.3683,0.092 0.7826,0.415 0.7366,0.829 -0.0461,0.322 -0.3683,0.506 -0.6446,0.691 -2.2559,1.105 -4.8801,1.105 -7.09,0 -1.9336,-0.967 -3.4989,-2.809 -3.7752,-4.927 -0.1841,-1.427 0.2302,-2.808 1.151,-3.913 0.3223,-0.368 1.3352,-0.875 1.4733,-1.335 -0.5985,-0.737 -1.4272,-3.453 0,-4.005 z"
       id="path158"
       inkscape:connector-curvature="0"
       style="fill:#ff9c57" />
    <path
       d="m 96.6358,146.818 c 0.3305,0 0.5985,-0.268 0.5985,-0.598 0,-0.331 -0.268,-0.599 -0.5985,-0.599 -0.3306,0 -0.5985,0.268 -0.5985,0.599 0,0.33 0.2679,0.598 0.5985,0.598 z"
       id="path160"
       inkscape:connector-curvature="0"
       style="fill:#2f363d" />
    <g
       id="g164"
       style="opacity:0.6">
      <path
         d="m 38.8569,121.451 c 2.4401,2.762 4.3277,5.939 6.6296,8.793 2.302,2.855 5.4787,4.926 9.0697,5.801 0.2762,-0.046 0.5064,-0.092 0.7827,-0.138 -2.5322,-0.23 -4.8802,-1.703 -6.6296,-3.591 -1.9797,-2.118 -3.3148,-4.696 -4.7881,-7.182 -2.348,-3.959 -5.2024,-7.919 -9.2538,-10.083 -2.8084,-1.473 -5.9851,-2.071 -9.1618,-1.703 5.1564,0.967 9.9905,4.282 13.3513,8.103 z"
         id="path162"
         inkscape:connector-curvature="0"
         style="opacity:0.6;fill:#ffd1ac" />
    </g>
    <g
       id="g168"
       style="opacity:0.6">
      <path
         d="m 78.9108,132.915 c 2.2559,1.289 4.0054,3.13 5.5707,5.156 0.0921,-0.553 0.2763,-1.105 0.4604,-1.611 -1.151,-1.336 -2.5321,-2.533 -4.0054,-3.499 -3.4069,-2.21 -7.3202,-2.855 -11.2335,-3.545 l 1.3351,0.644 c 2.6243,0.967 5.4326,1.427 7.8727,2.855 z"
         id="path166"
         inkscape:connector-curvature="0"
         style="opacity:0.6;fill:#ffd1ac" />
    </g>
    <g
       id="g172"
       style="opacity:0.6">
      <path
         d="m 88.0265,134.71 c 1.3351,-0.092 0.5985,2.256 1.3352,2.532 0.5985,0.23 1.3351,-0.23 2.0257,0.046 0.7366,0.369 1.2891,0.921 1.6574,1.658 0.5064,1.013 0.5064,1.933 0.4143,3.038 -0.046,1.427 0.0461,2.901 1.7035,3.315 -0.5065,-0.414 -0.7827,-1.013 -0.7367,-1.657 0.0461,-0.691 0.1842,-1.382 0.3223,-2.072 0.2302,-1.98 -0.6445,-3.959 -2.2559,-5.11 0.3223,-0.645 0.4604,-1.336 0.4604,-2.026 -0.0461,-0.737 -0.2762,-1.335 -1.0129,-1.381 -0.6445,-0.092 -1.197,0.368 -1.2891,1.013 v 0.046 c -0.092,0.736 0,1.473 0.2302,2.163 l -1.3351,-0.046 c 0.7366,-2.578 -0.1381,-3.683 -1.197,-3.222 -0.6906,0.276 -0.8287,1.012 -0.7827,1.841 0.1842,-0.046 0.3223,-0.092 0.4604,-0.138 z"
         id="path170"
         inkscape:connector-curvature="0"
         style="opacity:0.6;fill:#ffd1ac" />
    </g>
  </g>
  <defs
     id="defs179">
    <clipPath
       id="clip0">
      <rect
         width="363.8"
         height="159.847"
         fill="white"
         id="rect176" />
    </clipPath>
  </defs>
</svg>
